<?xml version="1.0" encoding="UTF-8"?>
<svg id="Layer_1" data-name="Layer 1" xmlns="http://www.w3.org/2000/svg" viewBox="0 0 459.17 459.27">
  <path d="m191.42,68.16c-22.8.45-46.5,4.78-69.38,13.44-22.28,8.43-42.37,20.5-60.22,36.33-6.35,5.64-13.93,8.52-22.44,9.06-10.92.7-20.51-2.46-28.58-9.81C3.58,110.59-.18,102.26,0,92.48c.18-9.39,4-17.37,11-23.66,16.32-14.65,34.28-26.96,53.72-37.11,21.34-11.15,43.8-19.25,67.27-24.58,8.55-1.94,17.18-3.44,25.88-4.56,10.22-1.3,20.46-2.29,30.77-2.34,3.75-.02,7.51-.34,11.25-.21,7.25.26,14.5.7,21.75,1.15,9.64.6,19.17,2.07,28.66,3.81,18.42,3.38,36.3,8.56,53.67,15.56,31.11,12.53,59,30.15,83.36,53.22,26.91,25.48,47.07,55.45,59.52,90.46,4.23,11.9,7.32,24.08,9.44,36.55,2.52,14.87,3.32,29.85,2.64,44.87-.83,18.41-4.06,36.44-9.68,54.01-10.66,33.38-28.32,62.6-52.38,88.02-15.55,16.43-32.98,30.45-52.69,41.59-20.31,11.47-41.89,19.58-64.7,24.48-8.51,1.83-17.08,3.22-25.72,4.13-5.55.59-11.14.76-16.72,1.08-2.55.15-5.1.35-7.65.29-5.74-.15-11.49-.35-17.22-.74-5.65-.38-11.32-.73-16.9-1.61-8.26-1.31-16.53-2.74-24.65-4.72-30.75-7.49-58.81-20.75-83.89-40.14-22.69-17.54-41.2-38.68-54.73-64.05-8.86-16.62-15.02-34.18-18.28-52.74-1.22-6.92-2.22-13.86-2.4-20.9-.15-5.91-.53-11.83-.26-17.72,1.46-31.95,10.8-61.47,27.84-88.55,7.83-12.44,17.03-23.77,27.37-34.19,21.91-22.06,47.81-37.4,77.69-45.99,10.06-2.89,20.3-4.91,30.72-6.07,8.99-1,18-1.49,27.03-1.21,17.56.54,34.79,3.25,51.56,8.55,23.93,7.56,45.46,19.44,64.24,36.15,19.71,17.54,34.49,38.47,43.3,63.46,3.62,10.27,6.13,20.81,7.08,31.67.43,4.93.84,9.87.86,14.81.1,20.41-4.17,39.92-12.55,58.51-7.23,16.04-17.15,30.26-29.33,42.94-9.53,9.92-20.12,18.47-32.2,25.11-13.05,7.17-26.9,12.04-41.57,14.61-6.3,1.1-12.63,1.77-19.02,2-32.79,1.17-62.51-7.6-88.6-27.68-16.95-13.04-29.64-29.44-37.31-49.54-3.11-8.15-5.13-16.57-6.15-25.25-.85-7.25-1-14.51-.28-21.74,1.97-19.92,9.01-37.95,21.03-53.97,7.54-10.05,16.19-18.99,26.88-25.73,16.15-10.19,33.87-14.34,52.86-13.11,19.11,1.24,36.14,7.87,50.65,20.47,12.59,10.93,21.02,24.44,24.01,40.98,3.8,20.98-1.31,39.79-14.52,56.42-4.24,5.34-8.97,10.21-14.96,13.68-16.43,9.52-38.17,5.31-49.44-9.58-9.69-12.8-8.48-30.69,2.83-42.07.73-.74,1.49-1.45,2.2-2.21,2.34-2.51,2.12-5.53-.53-7.72-3.46-2.85-8.99-3.03-12.43-.07-15.9,13.7-20.1,34.71-10.54,52.27,7,12.85,18.17,20.53,31.97,24.67,5.23,1.57,10.63,2.36,16.07,2.34,16.12-.06,30.2-5.34,41.82-16.72,10.11-9.9,17.93-21.32,21.99-34.94,8.28-27.76,2.7-52.85-15.72-74.96-13.85-16.64-31.86-26.85-52.75-32.09-6.98-1.75-14.07-2.71-21.28-3.05-21.54-1.01-41.68,3.68-60.35,14.52-10.77,6.25-19.84,14.52-27.92,23.91-13.06,15.17-22.11,32.39-26.53,51.97-2.36,10.43-3.27,21.01-2.55,31.65,1.81,26.67,11.87,49.98,29.34,70.1,16.62,19.14,37.19,32.51,60.98,41.02,11.48,4.11,23.32,6.76,35.43,8.11,11.23,1.25,22.46,1.33,33.73.23,18.23-1.79,35.64-6.43,52.22-14.22,13.78-6.48,26.24-14.92,37.36-25.31,13.11-12.26,24.25-26.08,32.97-41.82,9.28-16.76,15.39-34.59,17.83-53.58,3.91-30.39-.84-59.4-14.46-86.9-12.35-24.93-30.2-45.23-52.51-61.66-27.97-20.59-59.41-32.5-93.76-36.98-10.16-1.33-20.37-1.89-32.25-1.72Z"/>
</svg>