<?xml version="1.0" encoding="UTF-8"?>
<svg id="Layer_1" data-name="Layer 1" xmlns="http://www.w3.org/2000/svg" viewBox="0 0 382.2 314.57">
  <defs>
    <style>
      .cls-1 {
        fill: #231f20;
      }
    </style>
  </defs>
  <path class="cls-1" d="m259.04,210.14c-16.88-2.74-34.57,3.13-45.43,16.03-3.62,4.3-2.81,10.56,1.21,13.69,4.42,3.52,10.86,2.74,14.07-1.17,6.43-7.43,16.48-10.95,26.13-9.39,10.05,1.57,18.09,8.22,21.71,17.6,1.61,3.91,5.23,6.25,9.65,6.25,1.21,0,2.41-.39,3.62-.78,5.22-1.96,8.04-7.43,6.03-12.52-6.03-15.64-19.7-26.99-36.99-29.72"/>
  <path class="cls-1" d="m300.05,187.46c2.01.39,3.62.39,5.63.39,9.25,0,18.49-3.91,24.52-11.34,3.62-4.3,2.81-10.56-1.61-13.69-4.42-3.52-10.86-2.74-14.07,1.56-2.41,3.13-6.84,4.7-10.86,3.91-4.02-.78-7.64-3.52-8.84-7.43-2.01-5.08-7.64-7.82-12.87-5.87-5.22,1.96-8.04,7.43-6.03,12.52,3.62,10.56,12.86,17.99,24.12,19.95"/>
  <path class="cls-1" d="m345.48,214.05c-2.82,15.26-8.44,29.73-16.88,42.63-18.09,28.16-51.06,42.63-84.43,36.77-33.37-5.87-59.5-30.51-66.33-62.58-.8-3.91-1.61-7.82-2.01-11.73,19.29-10.95,34.17-27.77,43.02-48.11,3.22,1.96,6.83,3.13,10.45,3.91,2.01.39,3.62.39,5.63.39,9.25,0,18.49-3.91,24.52-11.34,3.62-4.3,2.82-10.56-1.6-13.69-4.42-3.52-10.86-2.74-14.07,1.57-2.41,3.13-6.83,4.69-10.86,3.91-3.21-.39-6.03-2.74-7.64-5.48,3.22-16.04,3.22-32.46.4-48.5,46.23,2.34,92.47,11.73,135.08,28.16l-15.28,84.09Zm-207.44-1.56c-33.37,5.87-66.74-8.61-84.43-36.77-8.44-13.3-14.07-27.38-16.88-42.63l-15.28-84.48c53.47-20.73,110.96-30.51,168.45-28.94l15.28,84.09c2.82,15.25,2.41,30.5-.8,45.76-6.83,32.46-32.96,57.1-66.33,62.97m238-97.39c-48.65-19.95-101.31-30.9-153.98-33.24l-13.67-73.14c-.8-4.7-4.82-7.82-9.25-8.21C133.61-2.62,66.87,8.72,6.17,33.75c-4.02,1.57-6.83,6.26-6.03,10.56l16.48,91.91c3.22,17.6,9.65,34.41,19.7,49.67,18.9,29.72,51.86,47.32,87.24,47.32,6.03,0,12.06-.39,18.09-1.57,5.23-.78,10.45-2.34,15.28-3.91.4,2.35.4,4.7,1.21,7.04,8.44,40.68,41,71.19,82.42,78.22,6.03,1.17,12.06,1.56,18.09,1.56,34.98,0,67.94-17.6,87.24-47.32,9.65-15.25,16.48-32.07,19.7-49.67l16.48-91.91c.8-4.3-2.01-9-6.03-10.56"/>
  <path class="cls-1" d="m105.44,99.07c4.42-3.52,4.82-9.78,1.21-13.69-7.64-8.61-18.89-12.52-29.74-10.56-11.25,1.96-20.49,9.78-24.51,19.95-2.01,5.08.8,10.56,6.03,12.52,1.21.39,2.41.39,3.21.39,4.02,0,8.04-2.35,9.64-6.65,1.21-3.91,4.82-6.65,8.84-7.04,4.02-.78,8.44.78,10.85,3.91,3.62,4.3,10.05,4.69,14.47,1.17"/>
  <path class="cls-1" d="m147.67,62.69c-11.25,1.96-20.49,9.78-24.51,19.95-2.01,5.08.8,10.56,6.03,12.51,1.21.39,2.41.39,3.21.39,4.02,0,8.04-2.35,9.64-6.65,1.21-3.91,4.82-6.65,8.84-7.04,4.02-.78,8.44.79,10.85,3.91,3.62,4.3,10.05,4.69,14.06,1.17,4.42-3.52,4.82-9.78,1.2-13.69-7.23-8.61-18.08-12.52-29.33-10.56"/>
  <path class="cls-1" d="m161.35,127.23c-5.22-1.96-10.85.78-12.86,5.87-3.21,9-11.25,15.64-21.3,17.6-10.05,1.57-20.09-1.96-26.52-9.39-3.62-4.3-10.05-4.69-14.06-1.17-4.42,3.52-4.82,9.78-1.21,13.69,9.24,10.95,22.51,16.82,36.58,16.82,2.81,0,5.62-.39,8.44-.78,16.88-2.74,31.35-14.47,36.97-30.12,2.01-5.08-.8-10.56-6.03-12.52"/>
</svg>