<?xml version="1.0" encoding="UTF-8"?>
<svg id="Layer_1" data-name="Layer 1" xmlns="http://www.w3.org/2000/svg" viewBox="0 0 320 313.05">
  <path d="m167.2,94.41c-9.75-54.2-35.21-76.06-35.21-76.06-53.36-43.12-80.04,3.26-80.04,3.26-15.64,39.25,30.36,39.87,30.36,39.87,32.47,4.87,46.31,36.94,49.12,44.42,9.07-7.23,20.55-11.56,33.03-11.56.92,0,1.83.02,2.74.07"/>
  <path d="m216.78,138.3c45.39-32.82,54-65.83,54-65.83C286.11,5.6,232.72,1.99,232.72,1.99c-42.13,3.17-22.49,44.78-22.49,44.78,8.03,25.45-5.5,47.73-13.8,58.3,10.52,7.95,17.99,19.72,20.35,33.23"/>
  <path d="m319.98,189.07c-8.3-41.43-47.19-16.85-47.19-16.85-23.65,10.79-46.8.92-58.62-6.01-4.79,12.68-14.29,23.05-26.37,28.98,36,36.16,66.86,40.27,66.86,40.27,68.24,7.04,65.31-46.39,65.31-46.39"/>
  <path d="m96.68,253.44c1.32,68.59,53.99,59.18,53.99,59.18,40.11-13.28,10.98-48.89,10.98-48.89-15.33-25.01-4.47-52.6.81-63.16-14.03-.52-26.68-6.5-35.89-15.88-29.58,38.91-29.9,68.76-29.9,68.76"/>
  <path d="m117.66,122.34c-54.34-9.14-83.53,7.45-83.53,7.45-58.61,35.67-23.95,76.44-23.95,76.44,31.67,27.97,47.77-15.12,47.77-15.12,13.85-25.76,43.03-30.32,54.89-31.09-.98-4.03-1.51-8.23-1.51-12.55,0-9.09,2.29-17.64,6.33-25.13"/>
  <path d="m164.46,166.16c-10.49,0-19.02-8.53-19.02-19.03s8.53-19.02,19.02-19.02,19.02,8.53,19.02,19.02-8.53,19.03-19.02,19.03m0-62.49c-23.97,0-43.47,19.5-43.47,43.46s19.5,43.47,43.47,43.47,43.47-19.5,43.47-43.47-19.5-43.46-43.47-43.46"/>
  <path d="m164.46,140.19c-3.83,0-6.94,3.11-6.94,6.94s3.11,6.94,6.94,6.94,6.94-3.12,6.94-6.94-3.11-6.94-6.94-6.94"/>
</svg>