<?xml version="1.0" encoding="UTF-8"?>
<svg id="Layer_1" data-name="Layer 1" xmlns="http://www.w3.org/2000/svg" viewBox="0 0 347.09 255.09">
  <path d="m140.89,49.23c13.89.92,26.82-10.66,25.87-25.53C165.86,9.65,156.31-.03,140.05.01c-13.44.03-24.1,10.81-24.38,24.95-.25,12.76,11.69,25.29,25.23,24.27"/>
  <path d="m206.77,49.34c14.39-1.2,24.84-10.61,24.43-24.89C230.72,8.2,219.99.28,205.18,0c-13.95-.26-25.23,11.48-24.92,24.73-.84,11.66,11.37,25.86,26.51,24.6"/>
  <path d="m30.35,120.11c-8.9,3.84-16.97,9.13-22.46,16.87-14.54,20.48-8.23,47.68,12.67,61.33,8.05,5.26,16.85,6.88,26.44,6.65,6.77-.16,13.06-1.51,18.85-4.57,11.41-6.01,18.52-15.58,22.47-27.3,5.06-15.01,9.75-30.14,14.66-45.2,4.86-14.93,9.77-29.84,14.82-45.21-19.65,8.47-38.8,16.75-57.98,24.98-9.81,4.2-19.68,8.24-29.48,12.46"/>
  <path d="m228.59,170.06c-23.04-.04-46.08-.1-69.12-.11-13.65,0-27.3.08-40.94.13-.19.19-.38.38-.57.57v27.63c.19.2.38.39.57.58,5.63.04,11.26.13,16.89.13,31.05-.02,62.11-.07,93.17-.1.21-.2.42-.4.63-.6,0-9.21,0-18.42,0-27.63l-.62-.59Z"/>
  <path d="m329.06,127.24c-12.04-8.56-26.38-12.83-39.78-18.81-14.47-6.46-29.14-12.53-43.73-18.75-5.18-2.21-10.37-4.4-16.34-6.93,4.45,13.76,8.6,26.6,12.76,39.44,4.63,14.3,9.25,28.61,13.9,42.91,2.98,9.15,6.47,17.96,13.06,25.49,11.68,13.36,28.42,17.16,45.29,12.78,17.25-4.48,27.7-15.67,31.64-32.24,4-16.83-1.68-33.14-16.78-43.88"/>
  <path d="m228.55,145c.22-.18.44-.37.66-.55v-28.38c-3.97,0-7.7,0-11.43,0-33.08.04-66.16.07-99.23.11-.21.23-.42.46-.63.68.01,9.19.02,18.39.03,27.57.2.19.41.37.62.56h109.99"/>
  <path d="m123.85,223.93c-.19.02-.38.03-.57.04.15.2.29.41.43.62,4.5,9.73,11.76,17.11,21.09,22.62,14.56,8.59,29.91,10.02,46.18,4.96,14.85-4.62,25.25-13.87,32.32-26.99.25-.35.49-.69.74-1.04-.26-.09-.52-.17-.78-.26-33.14.02-66.27.04-99.41.05"/>
  <path d="m123.77,89.92c-.9,2.73,1.48,1.41,2.19,1.42,31.78.07,63.56.07,95.33.06.75,0,1.5-.05,2.26-.09-.04-.48-.08-.96-.13-1.44-2.07-3.1-3.95-6.35-6.24-9.29-14.61-18.75-40.17-24.85-61.61-17.85-14.27,4.65-25.12,13.87-31.8,27.2"/>
</svg>